<?xml version="1.0" encoding="UTF-8" standalone="no"?>
<!-- Created with Inkscape (http://www.inkscape.org/) -->

<svg
   xmlns:osb="http://www.openswatchbook.org/uri/2009/osb"
   xmlns:dc="http://purl.org/dc/elements/1.1/"
   xmlns:cc="http://creativecommons.org/ns#"
   xmlns:rdf="http://www.w3.org/1999/02/22-rdf-syntax-ns#"
   xmlns:svg="http://www.w3.org/2000/svg"
   xmlns="http://www.w3.org/2000/svg"
   xmlns:xlink="http://www.w3.org/1999/xlink"
   xmlns:sodipodi="http://sodipodi.sourceforge.net/DTD/sodipodi-0.dtd"
   xmlns:inkscape="http://www.inkscape.org/namespaces/inkscape"
   sodipodi:docname="bbc-logo2.svg"
   inkscape:version="0.48.4 r9939"
   version="1.1"
   id="svg2"
   height="566.07233"
   width="498.94138"
   inkscape:export-filename="/home/alex/Alex/Work/Design/Various/bbc-logo2.png"
   inkscape:export-xdpi="70"
   inkscape:export-ydpi="70">
  <title
     id="title3812">BigBlackCode Logo</title>
  <defs
     id="defs4">
    <linearGradient
       id="linearGradient5623">
      <stop
         id="stop5636"
         offset="0"
         style="stop-color:#cc957c;stop-opacity:0.46153846;" />
      <stop
         style="stop-color:#cc957c;stop-opacity:0.24615385;"
         offset="1"
         id="stop5644" />
    </linearGradient>
    <linearGradient
       inkscape:collect="always"
       id="linearGradient5608">
      <stop
         style="stop-color:#cc4452;stop-opacity:1;"
         offset="0"
         id="stop5610" />
      <stop
         style="stop-color:#cc4452;stop-opacity:0;"
         offset="1"
         id="stop5612" />
    </linearGradient>
    <linearGradient
       id="linearGradient5546"
       osb:paint="solid">
      <stop
         style="stop-color:#df838c;stop-opacity:1;"
         offset="0"
         id="stop5548" />
    </linearGradient>
    <linearGradient
       id="linearGradient4090">
      <stop
         style="stop-color:#cc4452;stop-opacity:1;"
         offset="0"
         id="stop4092" />
      <stop
         style="stop-color:#cc4452;stop-opacity:0;"
         offset="1"
         id="stop4094" />
    </linearGradient>
    <filter
       inkscape:collect="always"
       id="filter5564"
       color-interpolation-filters="sRGB">
      <feGaussianBlur
         inkscape:collect="always"
         stdDeviation="3.2015401"
         id="feGaussianBlur5566" />
    </filter>
    <linearGradient
       inkscape:collect="always"
       xlink:href="#linearGradient5546"
       id="linearGradient5587"
       gradientUnits="userSpaceOnUse"
       x1="166.05602"
       y1="326.98737"
       x2="442.51538"
       y2="326.98737" />
    <linearGradient
       inkscape:collect="always"
       xlink:href="#linearGradient5608"
       id="linearGradient5618"
       x1="229.16125"
       y1="244.26112"
       x2="360.19504"
       y2="244.26112"
       gradientUnits="userSpaceOnUse" />
    <linearGradient
       inkscape:collect="always"
       xlink:href="#linearGradient5623"
       id="linearGradient5629"
       x1="153.92661"
       y1="361.14282"
       x2="438.40051"
       y2="361.14282"
       gradientUnits="userSpaceOnUse" />
    <linearGradient
       inkscape:collect="always"
       xlink:href="#linearGradient5546"
       id="linearGradient3044"
       gradientUnits="userSpaceOnUse"
       x1="166.05602"
       y1="326.98737"
       x2="442.51538"
       y2="326.98737" />
    <linearGradient
       inkscape:collect="always"
       xlink:href="#linearGradient5608"
       id="linearGradient3046"
       gradientUnits="userSpaceOnUse"
       x1="229.16125"
       y1="244.26112"
       x2="360.19504"
       y2="244.26112"
       gradientTransform="translate(0.97192407,21.138416)" />
  </defs>
  <sodipodi:namedview
     id="base"
     pagecolor="#ffffff"
     bordercolor="#666666"
     borderopacity="1.0"
     inkscape:pageopacity="0.0"
     inkscape:pageshadow="2"
     inkscape:zoom="1.4142136"
     inkscape:cx="380.76764"
     inkscape:cy="274.47405"
     inkscape:document-units="px"
     inkscape:current-layer="layer1"
     showgrid="false"
     inkscape:window-width="1855"
     inkscape:window-height="1056"
     inkscape:window-x="65"
     inkscape:window-y="24"
     inkscape:window-maximized="1"
     inkscape:snap-page="false"
     fit-margin-top="20"
     fit-margin-left="20"
     fit-margin-right="20"
     fit-margin-bottom="20" />
  <metadata
     id="metadata7">
    <rdf:RDF>
      <cc:Work
         rdf:about="">
        <dc:format>image/svg+xml</dc:format>
        <dc:type
           rdf:resource="http://purl.org/dc/dcmitype/StillImage" />
        <dc:title>BigBlackCode Logo</dc:title>
        <dc:date>04.06.2015</dc:date>
        <dc:creator>
          <cc:Agent>
            <dc:title>A.Tselengidis</dc:title>
          </cc:Agent>
        </dc:creator>
        <dc:rights>
          <cc:Agent>
            <dc:title>All Rights Reserved</dc:title>
          </cc:Agent>
        </dc:rights>
      </cc:Work>
    </rdf:RDF>
  </metadata>
  <g
     inkscape:label="Layer 1"
     inkscape:groupmode="layer"
     id="layer1"
     transform="translate(-47.172966,-38.568767)">
    <path
       sodipodi:type="star"
       style="fill:#31152b;fill-opacity:1;stroke:#31152b;stroke-width:25;stroke-linecap:round;stroke-linejoin:round;stroke-miterlimit:4;stroke-opacity:1;stroke-dasharray:none;stroke-dashoffset:0;marker-start:none"
       id="path3799"
       sodipodi:sides="6"
       sodipodi:cx="204.05081"
       sodipodi:cy="116.96093"
       sodipodi:r1="250.53616"
       sodipodi:r2="216.97067"
       sodipodi:arg1="1.5707963"
       sodipodi:arg2="2.0943951"
       inkscape:flatsided="true"
       inkscape:rounded="0"
       inkscape:randomized="0"
       d="M 204.05082,367.49709 -12.919867,242.22902 -12.919874,-8.307146 204.05081,-133.57523 421.02149,-8.3071576 421.0215,242.22901 z"
       transform="matrix(1,0,0,-1,92.59284,438.56586)" />
    <g
       transform="matrix(2.2319278,0,0,2.2319278,-109.41844,-799.48794)"
       style="font-size:25.27562714px;font-style:normal;font-variant:normal;font-weight:normal;font-stretch:normal;line-height:125%;letter-spacing:0px;word-spacing:0px;fill:#ffffff;fill-opacity:1;stroke:none;font-family:retrofitted;-inkscape-font-specification:retrofitted"
       id="flowRoot5648">
      <path
         d="m 114.19898,458.36318 c -0.10111,0.38756 -0.27803,0.67402 -0.53079,0.85937 -0.25276,0.18536 -0.51394,0.27804 -0.78354,0.27804 -0.25276,0 -0.48024,-0.10111 -0.68244,-0.30331 -0.18536,-0.18536 -0.26119,-0.45496 -0.22749,-0.80882 l 0.25276,-4.67599 c 0.0337,-0.50551 0.0758,-1.11212 0.12638,-1.81985 0.0506,-0.72456 0.1011,-1.46598 0.15165,-2.22425 0.0674,-0.77511 0.13481,-1.53338 0.20221,-2.27481 0.0674,-0.75826 0.12637,-1.43227 0.17693,-2.02205 0.0674,-0.6066 0.11795,-1.09526 0.15165,-1.46599 0.0337,-0.37069 0.059,-0.55604 0.0758,-0.55606 0.0169,2e-5 0.0337,-0.10951 0.0506,-0.32858 0.0169,-0.23589 0.0758,-0.48022 0.17693,-0.733 0.1011,-0.26959 0.2696,-0.50549 0.50551,-0.70771 0.25275,-0.21904 0.61504,-0.30329 1.08685,-0.25276 0.60661,0.0674 1.02787,0.2612 1.26378,0.58134 0.38756,-0.0505 0.84252,-0.0927 1.36489,-0.12638 0.53921,-0.0505 1.08684,-0.059 1.64291,-0.0253 0.57291,0.0169 1.12897,0.0843 1.6682,0.2022 0.55605,0.11797 1.04471,0.31175 1.46598,0.58134 0.4381,0.26962 0.78353,0.63191 1.0363,1.08685 0.25275,0.43813 0.37912,0.98577 0.37914,1.64292 -0.0169,0.57293 -0.10112,1.04474 -0.25276,1.41543 -0.15166,0.37072 -0.34544,0.67403 -0.58134,0.90993 -0.21907,0.23591 -0.4634,0.41284 -0.73299,0.53078 -0.26962,0.10112 -0.52237,0.17694 -0.75827,0.22748 0.3707,0.0169 0.78353,0.0927 1.2385,0.22749 0.45495,0.13481 0.87621,0.39599 1.26379,0.78354 0.40439,0.37072 0.72455,0.89308 0.96047,1.56709 0.25274,0.67402 0.34542,1.55867 0.27803,2.65394 -0.0843,1.26378 -0.37915,2.26638 -0.88465,3.0078 -0.48867,0.74142 -1.09528,1.29748 -1.81984,1.66819 -0.72458,0.37071 -1.51655,0.58977 -2.37591,0.65717 -0.85938,0.0506 -1.68505,0.0337 -2.47701,-0.0505 -0.77512,-0.0843 -1.47442,-0.20221 -2.09788,-0.35386 -0.60662,-0.15166 -1.0363,-0.26961 -1.28905,-0.35386 -0.0169,0.0505 -0.0253,0.11795 -0.0253,0.2022 m 1.21323,-8.36623 -0.98575,6.67277 c 0.2359,0.0674 0.59819,0.15165 1.08685,0.25275 0.48866,0.0843 1.02787,0.15166 1.61764,0.20221 0.60661,0.0337 1.22165,0.0253 1.84512,-0.0253 0.64031,-0.0505 1.22165,-0.19378 1.74402,-0.42968 0.52236,-0.25276 0.95204,-0.61504 1.28906,-1.08686 0.35385,-0.48865 0.54763,-1.12897 0.58134,-1.92094 0.0168,-0.82567 -0.0843,-1.48283 -0.30331,-1.9715 -0.21907,-0.48866 -0.52237,-0.85937 -0.90992,-1.11213 -0.38757,-0.2696 -0.83411,-0.44653 -1.33961,-0.53079 -0.50552,-0.0842 -1.02788,-0.11794 -1.56709,-0.1011 -0.52237,1e-5 -1.03631,0.0169 -1.54181,0.0506 -0.50552,0.0337 -0.96048,0.0337 -1.36489,0 l -0.15165,0 m 6.14198,-4.42323 c -0.0169,-0.5055 -0.21907,-0.88464 -0.60662,-1.13741 -0.37072,-0.26959 -0.8341,-0.45494 -1.39016,-0.55606 -0.53922,-0.11794 -1.10371,-0.16849 -1.69346,-0.15166 -0.58977,2e-5 -1.10371,0.0253 -1.54182,0.0758 l -0.70772,4.72654 c 0.23591,-0.0168 0.54764,-0.0421 0.9352,-0.0758 0.38756,-0.0505 0.80039,-0.11795 1.23851,-0.20221 0.4381,-0.10109 0.88464,-0.21904 1.33961,-0.35386 0.45495,-0.15164 0.85936,-0.32857 1.21323,-0.53078 0.3707,-0.21905 0.66558,-0.4718 0.88464,-0.75827 0.21905,-0.3033 0.32858,-0.64873 0.32859,-1.0363 m -6.36946,-3.89245 c -0.58977,-0.0337 -1.04473,0.17695 -1.36488,0.63189 -0.32016,0.45498 -0.46339,1.20482 -0.42969,2.24953 0.11795,-0.52235 0.21905,-0.95203 0.30331,-1.28906 0.0842,-0.33699 0.17692,-0.6066 0.27803,-0.80882 0.11795,-0.20218 0.2696,-0.36226 0.45496,-0.48023 0.18535,-0.11794 0.43811,-0.21904 0.75827,-0.30331"
         style="font-family:retrofitted;-inkscape-font-specification:retrofitted"
         id="path3020"
         inkscape:connector-curvature="0" />
      <path
         d="m 128.51525,445.64954 c 0.50551,0.0169 0.8678,0.13482 1.08685,0.35386 0.21906,0.20222 0.35386,0.4297 0.40441,0.68244 0.0674,0.25277 0.0758,0.4971 0.0253,0.733 -0.0337,0.23591 -0.059,0.39599 -0.0758,0.48023 -0.0169,0.0506 -0.0758,0.33702 -0.17693,0.85937 -0.1011,0.50553 -0.21906,1.13742 -0.35386,1.89568 -0.11795,0.74142 -0.2359,1.55024 -0.35385,2.42646 -0.11796,0.85937 -0.20221,1.66819 -0.25276,2.42646 -0.0505,0.74142 -0.0505,1.38173 0,1.92094 0.0506,0.52237 0.18535,0.82568 0.40441,0.90993 0.32015,0.11795 0.65716,0.16008 1.01102,0.12638 0.37071,-0.0506 0.71614,-0.12638 1.03631,-0.22749 0.32015,-0.1011 0.58133,-0.2022 0.78354,-0.3033 0.21905,-0.1011 0.337,-0.15166 0.35386,-0.15166 0.0168,0 0.0337,0.0674 0.0505,0.20221 0.0337,0.11795 0.0674,0.25276 0.1011,0.40441 0.0337,0.18535 0.0674,0.37913 0.10111,0.58134 -0.80883,0.28645 -1.57552,0.51394 -2.30009,0.68244 -0.30331,0.0674 -0.62347,0.12638 -0.96047,0.17693 -0.32016,0.0506 -0.63189,0.0758 -0.9352,0.0758 -0.28646,0 -0.55606,-0.0253 -0.80882,-0.0758 -0.25276,-0.0505 -0.46339,-0.14323 -0.63189,-0.27803 -0.20221,-0.15166 -0.35386,-0.53079 -0.45496,-1.13741 -0.0842,-0.62346 -0.1348,-1.34803 -0.15165,-2.1737 0,-0.84252 0.0253,-1.73559 0.0758,-2.67922 0.0506,-0.96046 0.1011,-1.85353 0.15166,-2.67921 0.0674,-0.82566 0.12637,-1.53338 0.17693,-2.12316 0.0674,-0.58975 0.10952,-0.95203 0.12637,-1.08685 0.0169,-0.16849 0.0337,-0.37069 0.0506,-0.60661 0.0337,-0.2359 0.0927,-0.46338 0.17693,-0.68244 0.10111,-0.21905 0.25276,-0.39598 0.45497,-0.53079 0.2022,-0.15164 0.49708,-0.21904 0.88464,-0.20221 m -0.35386,-2.55284 c 0.52236,-0.40439 0.9689,-0.55604 1.33961,-0.45496 0.38756,0.0843 0.64031,0.27805 0.75827,0.58134 0.1348,0.30333 0.1011,0.63191 -0.1011,0.98575 -0.18536,0.35387 -0.58977,0.58978 -1.21323,0.70772 -0.45497,0.0843 -0.8341,0.10112 -1.13741,0.0506 -0.28645,-0.0674 -0.48023,-0.17691 -0.58133,-0.32858 -0.0843,-0.16849 -0.059,-0.37912 0.0758,-0.63189 0.15165,-0.26959 0.43811,-0.5729 0.85937,-0.90993 m 0.42969,2.88143 c -0.33701,-0.0505 -0.60662,0.0674 -0.80882,0.35385 -0.20221,0.26962 -0.36229,0.63191 -0.48024,1.08686 -0.1011,0.45497 -0.1685,0.96048 -0.2022,1.51653 -0.0168,0.55608 -0.0253,1.08686 -0.0253,1.59237 0.0506,-0.48865 0.0927,-0.98574 0.12638,-1.49126 0.0506,-0.50551 0.12638,-0.96889 0.22748,-1.39016 0.1011,-0.4381 0.2359,-0.80039 0.40441,-1.08685 0.18535,-0.3033 0.43811,-0.49708 0.75827,-0.58134 m 0.90992,-3.0078 c -0.0842,-0.0842 -0.25276,-0.0758 -0.50551,0.0253 -0.25276,0.0843 -0.50552,0.21907 -0.75827,0.40441 -0.23591,0.18537 -0.42969,0.38758 -0.58134,0.60662 -0.15165,0.21907 -0.16008,0.41285 -0.0253,0.58134 -1e-5,-0.10109 0.059,-0.24432 0.17692,-0.42969 0.11796,-0.18534 0.26118,-0.36227 0.42969,-0.53079 0.18535,-0.16849 0.38756,-0.32014 0.60662,-0.45496 0.21905,-0.13479 0.4381,-0.20219 0.65716,-0.2022"
         style="font-family:retrofitted;-inkscape-font-specification:retrofitted"
         id="path3022"
         inkscape:connector-curvature="0" />
      <path
         d="m 139.36521,459.52586 0.0758,-1.01102 c -1.29749,0.53921 -2.42647,0.90992 -3.38694,1.11212 -0.94363,0.21906 -1.77772,0.12638 -2.50228,-0.27803 -0.65717,-0.37071 -1.15426,-0.90149 -1.49127,-1.59236 -0.33701,-0.70772 -0.54764,-1.49126 -0.63189,-2.35064 -0.0674,-0.85936 -0.0337,-1.75243 0.1011,-2.67921 0.13481,-0.92677 0.34544,-1.80299 0.6319,-2.62867 0.28645,-0.84251 0.62346,-1.58393 1.01102,-2.22425 0.38756,-0.65716 0.79197,-1.13739 1.21323,-1.44071 0.38756,-0.2696 0.82567,-0.4381 1.31433,-0.50552 0.50551,-0.0674 1.01945,-0.0674 1.54182,0 0.52235,0.0674 1.03629,0.18537 1.54181,0.35386 0.52235,0.16852 0.99417,0.35387 1.41543,0.55607 0.0842,-0.3033 0.24433,-0.58975 0.48024,-0.85937 0.25275,-0.2696 0.64873,-0.37913 1.18796,-0.32859 0.5055,0.0506 0.86778,0.17695 1.08685,0.37914 0.21904,0.20221 0.35385,0.4297 0.40441,0.68244 0.0674,0.25277 0.0758,0.4971 0.0253,0.73299 -0.0337,0.21907 -0.059,0.37072 -0.0758,0.45496 -0.0169,0.0337 -0.059,0.27805 -0.12638,0.733 -0.0674,0.43812 -0.16009,1.01103 -0.27803,1.71874 -0.10112,0.69087 -0.21907,1.45757 -0.35386,2.30008 -0.13482,0.84253 -0.26119,1.6682 -0.37914,2.47701 -0.11796,0.80883 -0.22749,1.55024 -0.32858,2.22426 -0.10111,0.65717 -0.17694,1.16268 -0.22748,1.51654 0.6066,-0.16851 1.22164,-0.32016 1.84512,-0.45497 0.62345,-0.15165 1.38172,-0.32015 2.27481,-0.50551 l 0.15165,1.18796 c -0.26962,0.0337 -0.5982,0.0842 -0.98575,0.15165 -0.38757,0.0842 -0.79198,0.17693 -1.21323,0.27803 -0.40442,0.1011 -0.8004,0.21063 -1.18795,0.32858 -0.38757,0.11796 -0.72458,0.22748 -1.01103,0.32859 -0.0674,0.47181 -0.16851,0.97732 -0.30331,1.51654 -0.11796,0.55606 -0.31174,1.06999 -0.58133,1.54181 -0.25277,0.47181 -0.58978,0.85937 -1.01103,1.16268 -0.42127,0.32015 -0.96891,0.48023 -1.64292,0.48023 -0.58977,0 -1.07843,-0.0758 -1.46598,-0.22748 -0.37072,-0.15166 -0.6656,-0.33701 -0.88465,-0.55606 -0.20221,-0.20221 -0.34544,-0.42969 -0.42968,-0.68244 -0.0843,-0.23591 -0.12639,-0.44654 -0.12638,-0.63189 -1e-5,-0.16851 0.008,-0.37071 0.0253,-0.60662 0.0337,-0.23591 0.17693,-0.49709 0.42969,-0.78354 0.2696,-0.26961 0.69929,-0.56449 1.28906,-0.88465 0.58975,-0.30331 1.4407,-0.62347 2.55283,-0.96047 l 0.0253,-0.0253 m 0.32858,-5.63646 c 0.0505,-0.90992 0.0927,-1.79457 0.12638,-2.65394 0.0505,-0.87622 0.0927,-1.60921 0.12638,-2.19898 -0.30332,-0.11795 -0.64875,-0.21905 -1.0363,-0.30331 -0.37072,-0.10109 -0.74143,-0.16849 -1.11213,-0.20221 -0.37071,-0.0505 -0.72457,-0.0505 -1.06158,0 -0.32016,0.0506 -0.58977,0.16009 -0.80882,0.32859 -0.26961,0.21906 -0.53921,0.5645 -0.80882,1.0363 -0.26961,0.47182 -0.51394,1.01103 -0.73299,1.61764 -0.20221,0.60662 -0.37071,1.24694 -0.50551,1.92095 -0.11796,0.67402 -0.16851,1.32276 -0.15166,1.94622 0.0169,0.60662 0.11795,1.15426 0.30331,1.64291 0.2022,0.47182 0.51394,0.82568 0.9352,1.06158 0.21905,0.13481 0.50551,0.19378 0.85937,0.17693 0.35386,-0.0169 0.73299,-0.0758 1.1374,-0.17693 0.40441,-0.11795 0.82567,-0.25275 1.26379,-0.40441 0.45495,-0.1685 0.88464,-0.34543 1.28905,-0.53079 l 0.17693,-3.26055 m -2.1737,9.55418 c 0.337,-0.0168 0.60661,-0.1011 0.80882,-0.25275 0.2022,-0.13481 0.36228,-0.32859 0.48024,-0.58134 0.11794,-0.23591 0.20219,-0.50552 0.25275,-0.80882 0.0505,-0.30331 0.0927,-0.63189 0.12638,-0.98575 -0.53922,0.1685 -0.96048,0.32858 -1.26378,0.48024 -0.30332,0.15165 -0.53922,0.29488 -0.70772,0.42968 -0.15166,0.1348 -0.25276,0.25275 -0.30331,0.35386 -0.0337,0.11795 -0.059,0.21063 -0.0758,0.27803 -0.0506,0.30331 -0.008,0.56449 0.12637,0.78355 0.15165,0.21905 0.33701,0.32015 0.55607,0.3033 m -0.80882,-17.28853 c -0.30331,-0.0168 -0.62347,0.008 -0.96048,0.0758 -0.33701,0.0506 -0.66559,0.16852 -0.98574,0.35386 -0.32017,0.16852 -0.61505,0.41285 -0.88465,0.73299 -0.26961,0.32017 -0.48024,0.73301 -0.63189,1.23851 0.25275,-0.42125 0.51393,-0.77511 0.78354,-1.06158 0.26961,-0.28644 0.54764,-0.51392 0.8341,-0.68244 0.28645,-0.18534 0.58133,-0.32857 0.88464,-0.42968 0.30331,-0.10109 0.62347,-0.17692 0.96048,-0.22749"
         style="font-family:retrofitted;-inkscape-font-specification:retrofitted"
         id="path3024"
         inkscape:connector-curvature="0" />
      <path
         d="m 146.43528,458.36318 c -0.10111,0.38756 -0.27804,0.67402 -0.53079,0.85937 -0.25276,0.18536 -0.51394,0.27804 -0.78355,0.27804 -0.25275,0 -0.48023,-0.10111 -0.68244,-0.30331 -0.18535,-0.18536 -0.26118,-0.45496 -0.22748,-0.80882 l 0.25276,-4.67599 c 0.0337,-0.50551 0.0758,-1.11212 0.12638,-1.81985 0.0506,-0.72456 0.1011,-1.46598 0.15165,-2.22425 0.0674,-0.77511 0.1348,-1.53338 0.20221,-2.27481 0.0674,-0.75826 0.12637,-1.43227 0.17692,-2.02205 0.0674,-0.6066 0.11796,-1.09526 0.15166,-1.46599 0.0337,-0.37069 0.059,-0.55604 0.0758,-0.55606 0.0168,2e-5 0.0337,-0.10951 0.0505,-0.32858 0.0169,-0.23589 0.0758,-0.48022 0.17693,-0.733 0.1011,-0.26959 0.2696,-0.50549 0.50551,-0.70771 0.25275,-0.21904 0.61504,-0.30329 1.08685,-0.25276 0.60661,0.0674 1.02787,0.2612 1.26378,0.58134 0.38756,-0.0505 0.84252,-0.0927 1.36489,-0.12638 0.5392,-0.0505 1.08684,-0.059 1.64291,-0.0253 0.57291,0.0169 1.12897,0.0843 1.66819,0.2022 0.55606,0.11797 1.04472,0.31175 1.46599,0.58134 0.4381,0.26962 0.78353,0.63191 1.0363,1.08685 0.25274,0.43813 0.37912,0.98577 0.37913,1.64292 -0.0169,0.57293 -0.10111,1.04474 -0.25275,1.41543 -0.15167,0.37072 -0.34545,0.67403 -0.58134,0.90993 -0.21907,0.23591 -0.4634,0.41284 -0.73299,0.53078 -0.26962,0.10112 -0.52238,0.17694 -0.75827,0.22748 0.3707,0.0169 0.78353,0.0927 1.2385,0.22749 0.45495,0.13481 0.87621,0.39599 1.26378,0.78354 0.4044,0.37072 0.72456,0.89308 0.96048,1.56709 0.25274,0.67402 0.34542,1.55867 0.27803,2.65394 -0.0843,1.26378 -0.37915,2.26638 -0.88465,3.0078 -0.48867,0.74142 -1.09529,1.29748 -1.81984,1.66819 -0.72458,0.37071 -1.51655,0.58977 -2.37591,0.65717 -0.85938,0.0506 -1.68505,0.0337 -2.47701,-0.0505 -0.77513,-0.0843 -1.47442,-0.20221 -2.09788,-0.35386 -0.60662,-0.15166 -1.0363,-0.26961 -1.28906,-0.35386 -0.0169,0.0505 -0.0253,0.11795 -0.0253,0.2022 m 1.21323,-8.36623 -0.98575,6.67277 c 0.2359,0.0674 0.59818,0.15165 1.08685,0.25275 0.48866,0.0843 1.02787,0.15166 1.61764,0.20221 0.60661,0.0337 1.22165,0.0253 1.84512,-0.0253 0.64031,-0.0505 1.22165,-0.19378 1.74402,-0.42968 0.52235,-0.25276 0.95204,-0.61504 1.28906,-1.08686 0.35384,-0.48865 0.54762,-1.12897 0.58134,-1.92094 0.0168,-0.82567 -0.0843,-1.48283 -0.30331,-1.9715 -0.21907,-0.48866 -0.52237,-0.85937 -0.90992,-1.11213 -0.38757,-0.2696 -0.83411,-0.44653 -1.33961,-0.53079 -0.50552,-0.0842 -1.02789,-0.11794 -1.56709,-0.1011 -0.52237,1e-5 -1.03631,0.0169 -1.54182,0.0506 -0.50551,0.0337 -0.96047,0.0337 -1.36488,0 l -0.15165,0 m 6.14197,-4.42323 c -0.0169,-0.5055 -0.21906,-0.88464 -0.60661,-1.13741 -0.37072,-0.26959 -0.8341,-0.45494 -1.39016,-0.55606 -0.53922,-0.11794 -1.10371,-0.16849 -1.69347,-0.15166 -0.58977,2e-5 -1.1037,0.0253 -1.54181,0.0758 l -0.70772,4.72654 c 0.2359,-0.0168 0.54764,-0.0421 0.9352,-0.0758 0.38756,-0.0505 0.80039,-0.11795 1.23851,-0.20221 0.4381,-0.10109 0.88464,-0.21904 1.3396,-0.35386 0.45496,-0.15164 0.85937,-0.32857 1.21323,-0.53078 0.37071,-0.21905 0.66559,-0.4718 0.88465,-0.75827 0.21905,-0.3033 0.32858,-0.64873 0.32858,-1.0363 m -6.36945,-3.89245 c -0.58977,-0.0337 -1.04473,0.17695 -1.36489,0.63189 -0.32016,0.45498 -0.46339,1.20482 -0.42968,2.24953 0.11795,-0.52235 0.21905,-0.95203 0.3033,-1.28906 0.0843,-0.33699 0.17693,-0.6066 0.27804,-0.80882 0.11795,-0.20218 0.2696,-0.36226 0.45496,-0.48023 0.18535,-0.11794 0.43811,-0.21904 0.75827,-0.30331"
         style="font-family:retrofitted;-inkscape-font-specification:retrofitted"
         id="path3026"
         inkscape:connector-curvature="0" />
      <path
         d="m 161.53509,441.40324 c 0.50551,0.0506 0.8678,0.17694 1.08686,0.37913 0.21905,0.20222 0.35385,0.4297 0.40441,0.68244 0.0674,0.25278 0.0758,0.49711 0.0253,0.733 -0.0337,0.21907 -0.059,0.37072 -0.0758,0.45496 -0.0169,0.0337 -0.0674,0.26119 -0.15166,0.68244 -0.0674,0.42127 -0.16008,0.96049 -0.27803,1.61764 -0.11796,0.65718 -0.24434,1.40702 -0.37913,2.24953 -0.13481,0.82568 -0.26962,1.67663 -0.40442,2.55284 -0.11795,0.87623 -0.22748,1.7356 -0.32858,2.57811 -0.1011,0.84253 -0.17693,1.60922 -0.22748,2.30009 -0.0506,0.69087 -0.059,1.2722 -0.0253,1.74401 0.0337,0.47182 0.11795,0.75827 0.25275,0.85937 0.42126,0.33701 0.91835,0.50552 1.49126,0.50552 0.57291,-0.0169 1.12055,-0.0927 1.64292,-0.22748 0.53921,-0.15166 0.99417,-0.31174 1.36488,-0.48024 0.38756,-0.1685 0.58976,-0.25276 0.60662,-0.25276 0.0168,0 0.0337,0.0674 0.0505,0.20221 0.0337,0.11795 0.0674,0.25276 0.1011,0.40441 0.0337,0.18535 0.0674,0.37913 0.1011,0.58134 -0.96048,0.2696 -1.9041,0.48023 -2.83087,0.63189 -0.80882,0.1348 -1.65134,0.21063 -2.52756,0.22748 -0.87622,0.0169 -1.65977,-0.0927 -2.35063,-0.32858 -0.15166,-0.0506 -0.26118,-0.32016 -0.32858,-0.80882 -0.0674,-0.48867 -0.10953,-1.11213 -0.12638,-1.8704 -0.0169,-0.75827 -0.008,-1.60921 0.0253,-2.55284 0.0505,-0.96047 0.10111,-1.92936 0.15166,-2.9067 0.0674,-0.99416 0.14322,-1.96306 0.22748,-2.90669 0.0842,-0.94361 0.16008,-1.77771 0.22748,-2.50229 0.0674,-0.7414 0.12638,-1.33117 0.17693,-1.76929 0.0506,-0.45495 0.0842,-0.68243 0.1011,-0.68245 0.0169,2e-5 0.0421,-0.11793 0.0758,-0.35385 0.0337,-0.23589 0.10952,-0.48865 0.22748,-0.75827 0.1348,-0.26959 0.32858,-0.51392 0.58134,-0.733 0.2696,-0.21903 0.64031,-0.30329 1.11212,-0.25275 m 0.12638,0.40441 c -0.43811,-0.10109 -0.80039,-0.0253 -1.08685,0.22748 -0.26961,0.25277 -0.48024,0.5982 -0.63189,1.0363 -0.15166,0.43812 -0.25276,0.93521 -0.30331,1.49126 -0.0337,0.55608 -0.0421,1.09529 -0.0253,1.61764 0.1011,-0.48865 0.17692,-0.97731 0.22748,-1.46599 0.0505,-0.48864 0.12637,-0.93518 0.22748,-1.3396 0.11795,-0.42125 0.29488,-0.76668 0.53079,-1.0363 0.2359,-0.28644 0.58976,-0.46337 1.06157,-0.53079"
         style="font-family:retrofitted;-inkscape-font-specification:retrofitted"
         id="path3028"
         inkscape:connector-curvature="0" />
      <path
         d="m 175.66654,445.67482 c 0.5055,0.0169 0.86778,0.13481 1.08685,0.35386 0.21904,0.20221 0.35385,0.4297 0.40441,0.68244 0.0674,0.25277 0.0758,0.4971 0.0253,0.73299 -0.0337,0.23592 -0.059,0.396 -0.0758,0.48024 -0.0169,0.0506 -0.0758,0.33702 -0.17693,0.85937 -0.10111,0.50552 -0.21907,1.13741 -0.35386,1.89567 -0.11796,0.74143 -0.23592,1.55025 -0.35386,2.42646 -0.11796,0.85938 -0.20221,1.6682 -0.25275,2.42646 -0.0506,0.74142 -0.0506,1.38174 0,1.92095 0.0505,0.52236 0.18534,0.82567 0.40441,0.90992 0.32014,0.11796 0.65715,0.16008 1.01102,0.12638 0.3707,-0.0505 0.71613,-0.12638 1.0363,-0.22748 0.32015,-0.1011 0.58133,-0.2022 0.78355,-0.30331 0.21904,-0.1011 0.33699,-0.15165 0.35386,-0.15165 0.0168,0 0.0337,0.0674 0.0506,0.2022 0.0337,0.11796 0.0674,0.25276 0.1011,0.40441 0.0337,0.18536 0.0674,0.37914 0.1011,0.58134 -0.80883,0.28646 -1.57553,0.51394 -2.30008,0.68245 -0.30332,0.0674 -0.62348,0.12637 -0.96047,0.17692 -0.32017,0.0506 -0.63191,0.0758 -0.9352,0.0758 -0.28647,0 -0.55608,-0.0253 -0.80882,-0.0758 -0.25277,-0.0505 -0.4634,-0.14322 -0.63189,-0.27803 -0.23592,-0.1685 -0.396,-0.64031 -0.48024,-1.41543 -0.40442,0.2022 -0.87623,0.42126 -1.41544,0.65716 -0.52237,0.21906 -1.07843,0.41284 -1.66819,0.58134 -0.57292,0.16851 -1.14583,0.27803 -1.71874,0.32859 -0.57292,0.0505 -1.1037,0.008 -1.59236,-0.12638 -0.55607,-0.15166 -1.01103,-0.42969 -1.36489,-0.8341 -0.33701,-0.42126 -0.59819,-0.91834 -0.78354,-1.49126 -0.18536,-0.58976 -0.29488,-1.23008 -0.32859,-1.92095 -0.0168,-0.69086 0.0169,-1.39858 0.10111,-2.12315 0.0842,-0.72456 0.21905,-1.4407 0.40441,-2.14843 0.18535,-0.72456 0.40441,-1.39015 0.65716,-1.99677 0.25276,-0.60661 0.52236,-1.13739 0.80882,-1.59237 0.30331,-0.4718 0.61504,-0.82565 0.9352,-1.06157 0.55606,-0.4044 1.1374,-0.64873 1.74402,-0.733 0.60661,-0.10109 1.19637,-0.10951 1.76929,-0.0253 0.57291,0.0843 1.11212,0.23592 1.61764,0.45496 0.52236,0.20222 0.97732,0.40442 1.36489,0.60661 0.0674,-0.28644 0.20219,-0.5392 0.40441,-0.75826 0.20219,-0.21905 0.54763,-0.32015 1.0363,-0.30331 m -6.39474,3.18473 c -0.26961,0.21906 -0.53921,0.5645 -0.80882,1.0363 -0.26961,0.45497 -0.50551,0.98576 -0.70771,1.59236 -0.20221,0.58977 -0.37071,1.21324 -0.50552,1.8704 -0.11795,0.65717 -0.1685,1.29749 -0.15165,1.92095 0.0169,0.60661 0.10953,1.16268 0.27803,1.66819 0.18535,0.48866 0.48024,0.8678 0.88465,1.1374 0.2359,0.15166 0.57291,0.21063 1.01102,0.17693 0.45496,-0.0506 0.9352,-0.15165 1.44072,-0.30331 0.52235,-0.15165 1.03629,-0.32858 1.54181,-0.53079 0.5055,-0.21905 0.95204,-0.41283 1.33961,-0.58133 -0.0337,-0.67402 -0.0421,-1.40701 -0.0253,-2.19898 0.0337,-0.79197 0.0758,-1.57551 0.12638,-2.35064 0.0505,-0.77511 0.10109,-1.49125 0.15165,-2.14843 0.0674,-0.674 0.12637,-1.22164 0.17693,-1.64291 -0.28646,-0.0842 -0.6319,-0.16007 -1.0363,-0.22748 -0.40442,-0.0842 -0.82568,-0.12637 -1.26378,-0.12638 -0.43812,1e-5 -0.87623,0.0506 -1.31433,0.15165 -0.42127,0.10112 -0.8004,0.28647 -1.13741,0.55607 m 0.98575,-2.75505 c -0.30331,-0.0168 -0.62347,0.008 -0.96047,0.0758 -0.33701,0.0506 -0.66559,0.16852 -0.98575,0.35386 -0.32016,0.16852 -0.61504,0.41285 -0.88465,0.73299 -0.2696,0.32017 -0.48024,0.73301 -0.63189,1.23851 0.25276,-0.42125 0.51394,-0.77511 0.78355,-1.06158 0.2696,-0.28644 0.54763,-0.51392 0.83409,-0.68244 0.28646,-0.18534 0.58134,-0.32857 0.88465,-0.42969 0.3033,-0.10109 0.62346,-0.17691 0.96047,-0.22748 m 4.52434,2.7045 c -1e-5,-0.0168 -0.008,-0.0253 -0.0253,-0.0253 -1e-5,0.0337 0.008,0.0421 0.0253,0.0253"
         style="font-family:retrofitted;-inkscape-font-specification:retrofitted"
         id="path3030"
         inkscape:connector-curvature="0" />
      <path
         d="m 189.66845,457.02357 c 0.0168,10e-6 0.0337,0.059 0.0505,0.17693 0.0337,0.11796 0.0674,0.25276 0.1011,0.40441 l 0.1011,0.60662 c -0.96048,0.40441 -1.91253,0.74984 -2.85614,1.0363 -0.92678,0.30331 -1.803,0.52236 -2.62867,0.65717 -0.82567,0.15165 -1.58394,0.2022 -2.2748,0.15165 -0.67402,-0.0337 -1.24694,-0.18536 -1.71875,-0.45496 -0.65716,-0.37071 -1.15425,-0.90992 -1.49126,-1.61764 -0.32016,-0.72457 -0.51394,-1.52496 -0.58134,-2.40119 -0.0842,-0.87621 -0.0505,-1.78614 0.1011,-2.72976 0.15166,-0.94362 0.37071,-1.83669 0.65717,-2.67922 0.28646,-0.85936 0.62347,-1.61763 1.01103,-2.27481 0.4044,-0.674 0.81724,-1.16266 1.2385,-1.46598 0.38756,-0.28645 0.80039,-0.4718 1.23851,-0.55607 0.45495,-0.10109 0.90991,-0.12636 1.36488,-0.0758 0.45496,0.0337 0.89307,0.11796 1.31433,0.25275 0.42126,0.11797 0.80039,0.2612 1.13741,0.42969 0.337,0.15166 0.61503,0.31174 0.83409,0.48024 0.2359,0.15166 0.38755,0.26961 0.45496,0.35385 0.1011,0.15167 0.1348,0.32017 0.10111,0.50552 -0.0337,0.18536 -0.11797,0.35387 -0.25276,0.50551 -0.11796,0.15166 -0.27804,0.27804 -0.48024,0.37913 -0.20221,0.0843 -0.42127,0.10112 -0.65716,0.0505 -0.23592,-0.0505 -0.50552,-0.10951 -0.80882,-0.17692 -0.28647,-0.0674 -0.58977,-0.11795 -0.90993,-0.15166 -0.30331,-0.0337 -0.61504,-0.0168 -0.93519,0.0505 -0.30332,0.0506 -0.58977,0.17694 -0.85938,0.37914 -0.26961,0.21906 -0.54764,0.55607 -0.83409,1.01102 -0.28646,0.45497 -0.54764,0.97733 -0.78355,1.56709 -0.2359,0.58977 -0.43811,1.21324 -0.60661,1.8704 -0.16851,0.65717 -0.26118,1.28906 -0.27803,1.89567 -0.0169,0.60662 0.0421,1.17111 0.17693,1.69347 0.15165,0.50551 0.42126,0.9015 0.80882,1.18795 0.58976,0.43811 1.28905,0.65717 2.09787,0.65717 0.80882,-0.0169 1.61764,-0.13481 2.42646,-0.35386 0.80882,-0.21906 1.55023,-0.47181 2.22426,-0.75827 0.69086,-0.28646 1.19637,-0.48866 1.51654,-0.60662 m -6.19253,-10.84324 c -0.30331,-0.0168 -0.60662,10e-6 -0.90992,0.0505 -0.28646,0.0506 -0.5645,0.16009 -0.8341,0.32859 -0.25276,0.16851 -0.49709,0.41284 -0.73299,0.73299 -0.21906,0.30332 -0.40441,0.70773 -0.55607,1.21323 0.25276,-0.42125 0.48866,-0.76668 0.70772,-1.0363 0.2359,-0.28645 0.46338,-0.51393 0.68244,-0.68244 0.23591,-0.1685 0.48024,-0.29487 0.733,-0.37914 0.2696,-0.10109 0.57291,-0.17692 0.90992,-0.22748"
         style="font-family:retrofitted;-inkscape-font-specification:retrofitted"
         id="path3032"
         inkscape:connector-curvature="0" />
      <path
         d="m 190.86509,458.36318 c -0.10111,0.38756 -0.27804,0.67402 -0.53079,0.85937 -0.25276,0.18536 -0.51394,0.27804 -0.78355,0.27804 -0.25275,0 -0.48023,-0.10111 -0.68244,-0.30331 -0.18535,-0.18536 -0.26118,-0.45496 -0.22748,-0.80882 l 0.25276,-4.67599 c 0.0337,-0.50551 0.0758,-1.11212 0.12638,-1.81985 0.0505,-0.72456 0.1011,-1.46598 0.15165,-2.22425 0.0674,-0.77511 0.1348,-1.53338 0.2022,-2.27481 0.0674,-0.75826 0.12638,-1.43227 0.17693,-2.02205 0.0674,-0.6066 0.11796,-1.09526 0.15166,-1.46599 0.0337,-0.37069 0.059,-0.55604 0.0758,-0.55606 0.0169,2e-5 0.0337,-0.10951 0.0506,-0.32858 0.0169,-0.23589 0.0758,-0.48022 0.17693,-0.733 0.1011,-0.26959 0.2696,-0.50549 0.50551,-0.70771 0.25275,-0.21904 0.61504,-0.30329 1.08685,-0.25276 0.50551,0.0506 0.86779,0.17695 1.08685,0.37913 0.21905,0.20223 0.35386,0.42971 0.40441,0.68245 0.0674,0.25277 0.0758,0.4971 0.0253,0.73299 -0.0337,0.21907 -0.059,0.37072 -0.0758,0.45496 0,0.0169 -0.0253,0.18537 -0.0758,0.50551 -0.0506,0.32018 -0.11795,0.74986 -0.2022,1.28906 -0.0843,0.52238 -0.17693,1.12899 -0.27803,1.81985 -0.10111,0.69087 -0.21064,1.42387 -0.32859,2.19898 0.48866,-0.35385 1.01102,-0.72456 1.56709,-1.11213 0.57291,-0.4044 1.09527,-0.77511 1.56709,-1.11213 0.55606,-0.4044 1.1037,-0.80038 1.64292,-1.18795 0.13479,-0.13479 0.27802,-0.22747 0.42968,-0.27804 0.1348,-0.0337 0.26118,-0.0168 0.37914,0.0505 0.13479,0.0506 0.25274,0.21065 0.35386,0.48024 0.0842,0.23592 0.11794,0.4297 0.1011,0.58134 -1e-5,0.15167 -0.0169,0.27805 -0.0505,0.37914 -0.0506,0.11796 -0.11796,0.21064 -0.20221,0.27803 -0.62347,0.33702 -1.24694,0.67403 -1.87039,1.01102 -0.53922,0.28647 -1.12899,0.60663 -1.7693,0.96048 -0.62347,0.33701 -1.21323,0.65717 -1.76929,0.96047 0.4381,-0.10109 0.90149,-0.2022 1.39016,-0.30331 0.5055,-0.10109 1.02787,-0.20219 1.56709,-0.3033 0.69086,-0.11795 1.23007,-0.1011 1.61764,0.0505 0.4044,0.15166 0.69085,0.40442 0.85937,0.75827 0.18534,0.33701 0.27802,0.74985 0.27803,1.2385 0.0168,0.48867 -0.0169,1.00261 -0.1011,1.54181 -0.0674,0.52237 -0.15167,1.05316 -0.25276,1.59237 -0.10111,0.53922 -0.17694,1.0363 -0.22748,1.49126 -0.0506,0.43811 -0.0506,0.81725 0,1.1374 0.0674,0.32016 0.22747,0.52237 0.48024,0.60662 0.32015,0.11795 0.65715,0.16008 1.01102,0.12638 0.3707,-0.0506 0.71613,-0.12638 1.0363,-0.22748 0.32015,-0.1011 0.58133,-0.20221 0.78355,-0.30331 0.21904,-0.1011 0.33699,-0.15165 0.35386,-0.15165 0.0168,0 0.0337,0.0674 0.0506,0.2022 0.0337,0.11795 0.0674,0.25276 0.1011,0.40441 0.0337,0.18536 0.0674,0.37914 0.1011,0.58134 -0.52237,0.2022 -1.07001,0.37071 -1.64291,0.50551 -0.48868,0.11795 -1.04474,0.21063 -1.66819,0.27803 -0.60663,0.0843 -1.20482,0.0927 -1.79457,0.0253 -0.47182,-0.0505 -0.79198,-0.26961 -0.96048,-0.65717 -0.16851,-0.38756 -0.25276,-0.85937 -0.25275,-1.41543 -1e-5,-0.55606 0.0421,-1.15425 0.12637,-1.79457 0.0842,-0.65716 0.14323,-1.26378 0.17693,-1.81985 0.0337,-0.55605 0,-1.02787 -0.1011,-1.41543 -0.10111,-0.4044 -0.33701,-0.63188 -0.70772,-0.68244 -0.38756,-0.0505 -0.85095,-0.0421 -1.39016,0.0253 -0.53921,0.0506 -1.07843,0.11796 -1.61764,0.20221 -0.1011,0.67402 -0.2022,1.33119 -0.3033,1.9715 -0.0843,0.64032 -0.16851,1.23851 -0.25276,1.79457 -0.0674,0.53921 -0.13481,1.02787 -0.20221,1.46598 -0.0505,0.43811 -0.0927,0.78355 -0.12637,1.0363 m 0.98575,-16.68191 c -0.58977,-0.0337 -1.04473,0.17695 -1.36489,0.63189 -0.32016,0.45498 -0.46339,1.20482 -0.42968,2.24953 0.11795,-0.52235 0.21905,-0.95203 0.3033,-1.28906 0.0842,-0.33699 0.17693,-0.6066 0.27804,-0.80882 0.11795,-0.20218 0.2696,-0.36226 0.45496,-0.48023 0.18535,-0.11794 0.43811,-0.21904 0.75827,-0.30331"
         style="font-family:retrofitted;-inkscape-font-specification:retrofitted"
         id="path3034"
         inkscape:connector-curvature="0" />
      <path
         d="m 207.39495,441.7571 c -0.38756,-0.0168 -0.8004,0.0253 -1.2385,0.12637 -0.43812,0.0843 -0.85938,0.25278 -1.26378,0.50552 -0.40442,0.25277 -0.79198,0.58135 -1.16268,0.98575 -0.35386,0.40442 -0.64875,0.90993 -0.88465,1.51653 0.33701,-0.55605 0.68244,-1.01943 1.0363,-1.39016 0.35386,-0.37069 0.71614,-0.674 1.08685,-0.90992 0.38756,-0.23589 0.77512,-0.41282 1.16268,-0.53079 0.40441,-0.13478 0.82567,-0.23589 1.26378,-0.3033 m 8.0882,17.2127 c -1.26379,0.53921 -2.48544,0.9352 -3.66496,1.18795 -1.16269,0.26961 -2.25797,0.41284 -3.28583,0.42969 -1.01104,0.0337 -1.93781,-0.0421 -2.78032,-0.22748 -0.84253,-0.18536 -1.56709,-0.45496 -2.17371,-0.80882 -0.85937,-0.48866 -1.52496,-1.19638 -1.99677,-2.12316 -0.45496,-0.94362 -0.74984,-1.98834 -0.88465,-3.13417 -0.1348,-1.14583 -0.1348,-2.3422 0,-3.58914 0.15166,-1.24692 0.38756,-2.42645 0.70772,-3.53859 0.33701,-1.11211 0.74984,-2.09786 1.23851,-2.95725 0.48866,-0.8762 1.01102,-1.51652 1.56709,-1.92095 0.52235,-0.37069 1.06999,-0.63187 1.64291,-0.78354 0.58976,-0.15164 1.17952,-0.22746 1.76929,-0.22748 0.58976,2e-5 1.16267,0.0674 1.71875,0.2022 0.55605,0.11797 1.05314,0.2612 1.49126,0.42969 0.45495,0.15167 0.82566,0.32017 1.11213,0.50551 0.30329,0.16852 0.49707,0.31175 0.58134,0.42969 0.15164,0.20222 0.21061,0.396 0.17693,0.58134 -0.0337,0.18537 -0.13482,0.35387 -0.30331,0.50551 -0.15167,0.13482 -0.3623,0.23592 -0.63189,0.30331 -0.25277,0.0506 -0.5308,0.0506 -0.8341,0 -0.30332,-0.0505 -0.67402,-0.10952 -1.11213,-0.17693 -0.43812,-0.0674 -0.89308,-0.10109 -1.36488,-0.1011 -0.47182,1e-5 -0.93521,0.0506 -1.39016,0.15165 -0.45497,0.10112 -0.85938,0.28647 -1.21323,0.55606 -0.33701,0.26962 -0.68245,0.72458 -1.0363,1.36489 -0.35386,0.62347 -0.67402,1.34804 -0.96047,2.1737 -0.28646,0.82568 -0.52237,1.71033 -0.70772,2.65394 -0.16851,0.94363 -0.23591,1.8704 -0.20221,2.78032 0.0337,0.89308 0.18536,1.72717 0.45496,2.50229 0.26961,0.75827 0.71614,1.38173 1.33961,1.87039 0.50551,0.38756 1.07842,0.67402 1.71875,0.85938 0.65716,0.1685 1.32275,0.2696 1.99677,0.3033 0.69086,0.0337 1.38173,0.008 2.0726,-0.0758 0.69086,-0.0843 1.3396,-0.19378 1.94623,-0.32859 0.6066,-0.15165 1.14581,-0.31173 1.61764,-0.48023 0.47179,-0.18536 0.8425,-0.35386 1.11212,-0.50552 l 0.27803,1.18796"
         style="font-family:retrofitted;-inkscape-font-specification:retrofitted"
         id="path3036"
         inkscape:connector-curvature="0" />
      <path
         d="m 225.89355,449.87057 c -0.42127,0.16852 -0.88465,0.30332 -1.39016,0.40441 0.1685,0.79198 0.24432,1.61765 0.22749,2.47701 -2e-5,0.84253 -0.10954,1.65977 -0.32859,2.45174 -0.20221,0.79197 -0.51395,1.52496 -0.9352,2.19898 -0.42127,0.65717 -0.95205,1.2048 -1.59236,1.64291 -0.64032,0.43812 -1.39859,0.72457 -2.27481,0.85938 -0.87622,0.1348 -1.8704,0.0674 -2.98252,-0.20221 -0.74142,-0.18535 -1.32276,-0.58976 -1.74402,-1.21323 -0.40441,-0.62346 -0.67402,-1.36488 -0.80882,-2.22425 -0.15165,-0.87622 -0.17693,-1.81142 -0.0758,-2.8056 0.0843,-1.01102 0.26118,-1.97149 0.53079,-2.88142 0.28646,-0.92676 0.64032,-1.75243 1.06158,-2.47701 0.43811,-0.74141 0.92677,-1.28905 1.46598,-1.64292 0.85937,-0.55605 1.65977,-0.87621 2.40119,-0.96047 0.74141,-0.10109 1.407,-0.0168 1.99677,0.25275 0.60661,0.25277 1.12897,0.65718 1.56709,1.21324 0.4381,0.55607 0.80039,1.19639 1.08685,1.92094 0.0505,0.0337 0.12637,0.0674 0.22749,0.10111 0.21904,0.0843 0.45495,0.10953 0.70771,0.0758 0.25275,-0.0505 0.52235,-0.12637 0.80882,-0.22748 0.28645,-0.11794 0.56448,-0.25274 0.8341,-0.40441 0.28644,-0.15164 0.5392,-0.29487 0.75827,-0.42968 0.23589,-0.15165 0.42124,-0.27802 0.55606,-0.37914 0.13479,-0.10109 0.21062,-0.15164 0.22748,-0.15165 0.0168,10e-6 0.0337,0.0674 0.0506,0.2022 0.0337,0.11797 0.0674,0.25277 0.10111,0.40441 0.0337,0.18537 0.0674,0.37915 0.1011,0.58134 -0.23592,0.13482 -0.48868,0.26962 -0.75827,0.40441 -0.23592,0.11796 -0.51395,0.25277 -0.8341,0.40441 -0.30332,0.13481 -0.6319,0.26962 -0.98575,0.40441 m -7.45631,-0.98575 c -0.30331,0.20222 -0.58976,0.54765 -0.85937,1.0363 -0.25276,0.47182 -0.47181,1.01104 -0.65716,1.61764 -0.16851,0.58978 -0.29489,1.22167 -0.37914,1.89568 -0.0674,0.67402 -0.0674,1.31433 0,1.92094 0.0842,0.58977 0.24433,1.11213 0.48024,1.56709 0.2359,0.45497 0.58133,0.77512 1.0363,0.96048 0.60661,0.25275 1.16267,0.32015 1.66819,0.2022 0.50551,-0.11795 0.94362,-0.36228 1.31433,-0.73299 0.38756,-0.37071 0.71614,-0.8341 0.98575,-1.39016 0.2696,-0.55606 0.47181,-1.14583 0.60662,-1.7693 0.13479,-0.64031 0.20219,-1.28905 0.2022,-1.94622 0.0168,-0.65716 -0.0421,-1.26377 -0.17693,-1.81984 -0.15166,-0.0169 -0.31174,-0.0758 -0.48023,-0.17693 -0.16852,-0.1011 -0.32017,-0.2359 -0.45496,-0.40441 -0.11796,-0.1685 -0.20222,-0.36228 -0.25276,-0.58134 -0.0506,-0.2359 -0.0337,-0.49708 0.0506,-0.78355 -0.35387,-0.26959 -0.79198,-0.37912 -1.31433,-0.32858 -0.50552,0.0337 -1.09528,0.27804 -1.7693,0.73299 m 1.13741,-2.78032 c -0.30332,-0.0168 -0.62347,0.008 -0.96048,0.0758 -0.33701,0.0506 -0.66559,0.16852 -0.98575,0.35386 -0.32016,0.16852 -0.61504,0.41285 -0.88464,0.73299 -0.26961,0.32017 -0.48024,0.73301 -0.63189,1.23851 0.25275,-0.42125 0.51393,-0.77511 0.78354,-1.06158 0.2696,-0.28644 0.54764,-0.51392 0.8341,-0.68244 0.28645,-0.18534 0.58133,-0.32857 0.88464,-0.42969 0.30331,-0.10109 0.62346,-0.17691 0.96048,-0.22748"
         style="font-family:retrofitted;-inkscape-font-specification:retrofitted"
         id="path3038"
         inkscape:connector-curvature="0" />
      <path
         d="m 237.4153,441.40324 c 0.5055,0.0506 0.86778,0.17694 1.08685,0.37913 0.21904,0.20222 0.35384,0.4297 0.40441,0.68244 0.0674,0.25278 0.0758,0.49711 0.0253,0.733 -0.0337,0.21907 -0.059,0.37072 -0.0758,0.45496 -0.0169,0.0337 -0.0674,0.26119 -0.15166,0.68244 -0.0674,0.42127 -0.16851,0.96891 -0.30331,1.64292 -0.11796,0.65717 -0.25276,1.40702 -0.40441,2.24953 -0.13481,0.84253 -0.26961,1.71032 -0.40441,2.60339 -0.11796,0.87623 -0.23591,1.74402 -0.35385,2.60339 -0.10112,0.84252 -0.17694,1.60921 -0.22748,2.30008 -0.0337,0.67402 -0.0337,1.23851 0,1.69346 0.0505,0.45497 0.15164,0.72457 0.3033,0.80882 0.32015,0.16851 0.65716,0.23591 1.01103,0.20221 0.37069,-0.0505 0.7077,-0.12638 1.01102,-0.22748 0.32015,-0.11795 0.58975,-0.23591 0.80882,-0.35386 0.21904,-0.1348 0.337,-0.2022 0.35386,-0.2022 0.0168,0 0.0337,0.0674 0.0506,0.2022 0.0337,0.11795 0.0674,0.25276 0.10111,0.40441 0.0337,0.18536 0.0674,0.37914 0.1011,0.58134 -0.58978,0.28646 -1.21325,0.51394 -1.8704,0.68244 -0.55607,0.1348 -1.17954,0.21906 -1.87039,0.25276 -0.67403,0.0505 -1.35647,-0.0421 -2.04733,-0.27803 -0.18536,-0.0674 -0.32017,-0.51394 -0.40441,-1.33961 -0.74143,0.32016 -1.43229,0.60661 -2.0726,0.85937 -0.64032,0.2359 -1.23851,0.41283 -1.79457,0.53079 -0.53922,0.1348 -1.04473,0.19378 -1.51654,0.17693 -0.45496,-0.0168 -0.88465,-0.14323 -1.28906,-0.37914 -0.65716,-0.37071 -1.15425,-0.90149 -1.49126,-1.59236 -0.33701,-0.70772 -0.53921,-1.49126 -0.60661,-2.35064 -0.0843,-0.85936 -0.059,-1.75243 0.0758,-2.67921 0.13481,-0.92677 0.34544,-1.80299 0.63189,-2.62867 0.28646,-0.84251 0.62347,-1.58393 1.01103,-2.22425 0.38756,-0.65716 0.79197,-1.13739 1.21323,-1.44071 0.42126,-0.3033 0.90992,-0.48023 1.46599,-0.53079 0.55605,-0.0505 1.12054,-0.0253 1.69346,0.0758 0.58976,0.10111 1.15425,0.26119 1.69347,0.48023 0.55606,0.20222 1.03629,0.40442 1.44071,0.60662 0.10109,-1.02786 0.18535,-1.87881 0.25276,-2.55284 0.0842,-0.674 0.13479,-1.01101 0.15165,-1.01103 0.0168,2e-5 0.0421,-0.11793 0.0758,-0.35385 0.0337,-0.23589 0.10952,-0.48865 0.22748,-0.75827 0.13479,-0.26959 0.32857,-0.51392 0.58134,-0.733 0.26959,-0.21903 0.6403,-0.30329 1.11213,-0.25275 m -2.9067,15.46868 c -0.0169,-0.52236 -0.0169,-1.08685 0,-1.69347 0.0168,-0.62346 0.0421,-1.26377 0.0758,-1.92094 0.0337,-0.65716 0.0674,-1.32275 0.10111,-1.99678 0.0505,-0.67401 0.10109,-1.3396 0.15165,-1.99677 -0.28646,-0.11795 -0.64032,-0.24432 -1.06158,-0.37914 -0.40441,-0.13479 -0.82567,-0.23589 -1.26378,-0.3033 -0.43811,-0.0842 -0.85937,-0.10952 -1.26378,-0.0758 -0.40441,0.0337 -0.733,0.15166 -0.98575,0.35386 -0.26961,0.21906 -0.53921,0.5645 -0.80882,1.0363 -0.26961,0.47182 -0.51394,1.01103 -0.73299,1.61764 -0.20221,0.60662 -0.37071,1.24694 -0.50551,1.92095 -0.11796,0.67402 -0.16851,1.32276 -0.15166,1.94622 0.0169,0.60662 0.11795,1.15426 0.30331,1.64291 0.2022,0.47182 0.51394,0.82568 0.9352,1.06158 0.25275,0.15166 0.58133,0.21063 0.98575,0.17693 0.42125,-0.0506 0.86779,-0.14323 1.33961,-0.27803 0.48865,-0.1348 0.97731,-0.30331 1.46598,-0.50551 0.50551,-0.21906 0.97732,-0.42126 1.41544,-0.60662 m 3.18473,-15.06427 c -0.43813,-0.10109 -0.80041,-0.0253 -1.08685,0.22748 -0.26962,0.25277 -0.48025,0.5982 -0.6319,1.0363 -0.15166,0.43812 -0.25276,0.93521 -0.3033,1.49126 -0.0337,0.55608 -0.0421,1.09529 -0.0253,1.61764 0.10109,-0.48865 0.17692,-0.97731 0.22748,-1.46599 0.0505,-0.48864 0.12637,-0.93518 0.22748,-1.3396 0.11795,-0.42125 0.29487,-0.76668 0.53079,-1.0363 0.2359,-0.28644 0.58975,-0.46337 1.06158,-0.53079 m -6.44529,4.29685 c -0.30331,-0.0168 -0.63189,2e-5 -0.98575,0.0506 -0.33701,0.0506 -0.67402,0.1601 -1.01102,0.32859 -0.33701,0.15166 -0.64875,0.37914 -0.9352,0.68244 -0.28646,0.30332 -0.50552,0.70773 -0.65717,1.21323 0.25276,-0.42125 0.51394,-0.76668 0.78355,-1.0363 0.28645,-0.2696 0.58133,-0.48865 0.88464,-0.65717 0.30331,-0.16849 0.61504,-0.29487 0.9352,-0.37913 0.32016,-0.0842 0.64874,-0.15164 0.98575,-0.20221"
         style="font-family:retrofitted;-inkscape-font-specification:retrofitted"
         id="path3040"
         inkscape:connector-curvature="0" />
      <path
         d="m 251.64705,457.02357 c 0.0168,10e-6 0.0337,0.059 0.0505,0.17693 0.0337,0.11796 0.0674,0.25276 0.1011,0.40441 l 0.1011,0.60662 c -0.96048,0.40441 -1.96308,0.74984 -3.0078,1.0363 -1.04473,0.30331 -2.04733,0.52236 -3.0078,0.65717 -0.94362,0.15165 -1.81142,0.2022 -2.60339,0.15165 -0.77512,-0.0337 -1.39858,-0.18536 -1.87039,-0.45496 -0.65717,-0.37071 -1.15426,-0.90992 -1.49126,-1.61764 -0.32016,-0.72457 -0.51394,-1.52496 -0.58134,-2.40119 -0.0842,-0.87621 -0.0505,-1.78614 0.1011,-2.72976 0.15165,-0.94362 0.37071,-1.83669 0.65717,-2.67922 0.28645,-0.85936 0.62346,-1.61763 1.01102,-2.27481 0.40441,-0.674 0.81724,-1.16266 1.23851,-1.46598 0.96047,-0.69086 1.88724,-1.02786 2.78032,-1.01103 0.90991,0.0169 1.71031,0.23592 2.40118,0.65717 0.70771,0.42127 1.2722,0.96891 1.69347,1.64291 0.4381,0.67403 0.65715,1.3312 0.65716,1.9715 -1e-5,0.25277 -0.0337,0.45497 -0.1011,0.60662 -0.0506,0.13481 -0.11796,0.24434 -0.2022,0.32858 -0.0843,0.0843 -0.17694,0.14324 -0.27804,0.17693 -0.11796,0.0506 -0.45497,0.15166 -1.01102,0.30331 -0.23592,0.0674 -0.53922,0.14323 -0.90992,0.22748 -0.35387,0.0843 -0.79198,0.19379 -1.31434,0.32858 -0.52237,0.11796 -1.12898,0.25277 -1.81984,0.40441 -0.69087,0.15166 -1.49127,0.32859 -2.40119,0.53079 -0.15165,0.53922 -0.27803,1.08686 -0.37913,1.64292 -0.0842,0.53921 -0.11796,1.05315 -0.1011,1.54181 0.0337,0.48866 0.12637,0.9352 0.27803,1.33961 0.1685,0.40441 0.41283,0.72457 0.73299,0.96047 0.38756,0.28646 0.85937,0.47181 1.41544,0.55606 0.55606,0.0843 1.1374,0.10111 1.74402,0.0506 0.62345,-0.0506 1.24692,-0.15166 1.87039,-0.30331 0.64031,-0.15165 1.2385,-0.31173 1.79457,-0.48024 0.55606,-0.18535 1.04472,-0.35386 1.46599,-0.50551 0.4381,-0.1685 0.76668,-0.29488 0.98575,-0.37914 m -3.86717,-7.63323 c 0.13479,-0.0505 0.20219,-0.10952 0.2022,-0.17693 -1e-5,-0.0674 -0.0169,-0.11795 -0.0505,-0.15166 -0.35387,-0.62345 -0.81725,-1.03629 -1.39016,-1.2385 -0.57292,-0.2022 -1.15426,-0.2022 -1.74402,0 -0.57292,0.18536 -1.1037,0.5645 -1.59236,1.1374 -0.48867,0.57292 -0.82568,1.31434 -1.01103,2.22425 l 5.58592,-1.79456 m -2.9067,-3.28584 c -0.30331,-0.0168 -0.62347,0.008 -0.96047,0.0758 -0.33702,0.0506 -0.6656,0.16852 -0.98575,0.35386 -0.32016,0.16852 -0.61505,0.41285 -0.88465,0.73299 -0.26961,0.32017 -0.48024,0.73301 -0.63189,1.23851 0.25275,-0.42125 0.51393,-0.77511 0.78354,-1.06158 0.26961,-0.28644 0.54764,-0.51392 0.8341,-0.68244 0.28645,-0.18534 0.58133,-0.32857 0.88465,-0.42969 0.3033,-0.10109 0.62346,-0.17691 0.96047,-0.22748"
         style="font-family:retrofitted;-inkscape-font-specification:retrofitted"
         id="path3042"
         inkscape:connector-curvature="0" />
    </g>
    <g
       id="g3029"
       transform="matrix(0.74277025,0,0,1.0340306,75.331397,21.887868)">
      <path
         inkscape:connector-curvature="0"
         id="path3867"
         d="m 439.11717,361.14282 c 0,31.87942 -63.20036,57.72279 -141.16197,57.72279 -77.9616,0 -141.16198,-25.84337 -141.16198,-57.72279 0,-31.87942 61.21549,-43.72279 139.1771,-43.72279 77.9616,0 143.14685,11.84337 143.14685,43.72279 z"
         style="fill:#dbb5a3;fill-opacity:1;stroke:none"
         sodipodi:nodetypes="sssss" />
      <g
         transform="matrix(0.82656225,0,0,0.91875424,56.731333,-36.46333)"
         id="g3862">
        <path
           transform="matrix(0.94148936,0,0,1,5.661094,83.425162)"
           d="m 438.57143,326.64789 c 0,27.61424 -60.12177,50 -134.28572,50 -74.16396,0 -134.28573,-22.38576 -134.28573,-50 0,-27.61424 60.12177,-50 134.28573,-50 74.16395,0 134.28572,22.38576 134.28572,50 z"
           sodipodi:ry="50"
           sodipodi:rx="134.28572"
           sodipodi:cy="326.64789"
           sodipodi:cx="304.28571"
           id="path5583"
           style="fill:#cc4452;fill-opacity:1;stroke:none"
           sodipodi:type="arc" />
        <path
           sodipodi:nodetypes="sssccss"
           inkscape:connector-curvature="0"
           id="rect3820"
           d="m 172.13226,408.40323 240.02122,0 c 3.55555,0 6.41796,-0.70395 6.41796,-1.57836 l 0,-76.66326 c -17.54237,0 -252.85715,0 -252.85715,0 l 0,76.66326 c 0,0.87441 2.86242,1.57836 6.41797,1.57836 z"
           style="fill:#cc4452;fill-opacity:1;stroke:none" />
        <path
           sodipodi:type="arc"
           style="fill:#cc4452;fill-opacity:1;stroke:none"
           id="path3858"
           sodipodi:cx="304.28571"
           sodipodi:cy="326.64789"
           sodipodi:rx="134.28572"
           sodipodi:ry="50"
           d="m 438.57143,326.64789 c 0,27.61424 -60.12177,50 -134.28572,50 -74.16396,0 -134.28573,-22.38576 -134.28573,-50 0,-27.61424 60.12177,-50 134.28573,-50 74.16395,0 134.28572,22.38576 134.28572,50 z"
           transform="matrix(0.94148936,0,0,1,5.661094,79.07144)" />
        <path
           transform="matrix(0.94148936,0,0,0.65792189,5.661094,115.64763)"
           d="m 438.57143,326.64789 c 0,27.61424 -60.12177,50 -134.28572,50 -74.16396,0 -134.28573,-22.38576 -134.28573,-50 0,-27.61424 60.12177,-50 134.28573,-50 74.16395,0 134.28572,22.38576 134.28572,50 z"
           sodipodi:ry="50"
           sodipodi:rx="134.28572"
           sodipodi:cy="326.64789"
           sodipodi:cx="304.28571"
           id="path3840"
           style="fill:#d76d77;fill-opacity:1;stroke:none;stroke-width:7.29017019;marker-start:none"
           sodipodi:type="arc" />
        <g
           id="g4106" />
        <path
           sodipodi:nodetypes="sssss"
           inkscape:connector-curvature="0"
           id="path4087"
           d="m 437.90647,327.10054 c 0.17358,26.73822 -59.52634,48.64204 -132.95579,48.64204 -73.42946,0 -134.46404,-21.90388 -134.28574,-48.64204 0.16625,-24.92864 60.19131,-48.86836 133.62077,-48.86836 73.42945,0 133.45451,23.26074 133.62076,48.86836 z"
           style="fill:none;stroke:url(#linearGradient3044);stroke-width:9.217062;stroke-miterlimit:4;stroke-opacity:0.23744291;marker-start:none;filter:url(#filter5564)"
           transform="matrix(0.91892873,0,0,0.60724053,12.475143,132.154)" />
      </g>
      <g
         id="g3023">
        <g
           id="g5596"
           transform="matrix(1.1975299,0.04775216,-0.05506127,1.0385635,-29.611586,-23.510894)">
          <path
             sodipodi:nodetypes="ccsc"
             inkscape:connector-curvature="0"
             id="rect5591"
             d="m 361.16701,262.92282 -136.39892,19.15316 c 0,0 24.82513,-34.32615 27.2776,-35.20918 2.10192,-0.75681 109.12132,16.05602 109.12132,16.05602 z"
             style="fill:url(#linearGradient3046);fill-opacity:1;stroke:none" />
          <path
             style="fill:#e59ea5;fill-opacity:1;stroke:none"
             d="m 343.18459,265.02162 -111.92582,16.20955 c 0,0 21.15639,-29.24015 22.18871,-29.61184 1.49658,-0.53885 89.73711,13.40229 89.73711,13.40229 z"
             id="path5594"
             inkscape:connector-curvature="0"
             sodipodi:nodetypes="ccsc" />
        </g>
        <path
           style="fill:#a72d3a;fill-opacity:1;stroke:none"
           d="m 258.65968,244.96585 c 0.55242,1.18314 1.35302,4.93564 1.35302,4.93564 0.36681,-0.3668 -28.17301,29.70289 -28.17301,29.70289 0,0 -7.28215,1.07402 -7.79932,0.55685 -0.56513,-0.56513 34.01064,-36.49897 34.61931,-35.19538 z"
           id="rect5631"
           inkscape:connector-curvature="0"
           sodipodi:nodetypes="sscss" />
      </g>
    </g>
  </g>
</svg>
